<svg width="45" height="17" viewBox="0 0 45 17" fill="none" xmlns="http://www.w3.org/2000/svg">
    <path d="M12.9157 15.0408C12.3614 15.493 11.6393 15.8722 10.7496 16.1786C9.85977 16.4849 8.96269 16.638 8.05832 16.638C6.70176 16.638 5.44001 16.3244 4.27308 15.6972C3.10615 15.07 2.16531 14.1656 1.45056 12.9841C0.7504 11.8026 0.40032 10.4168 0.40032 8.82687C0.40032 7.33903 0.721227 6.00435 1.36304 4.82283C2.01944 3.64131 2.94569 2.72235 4.1418 2.06595C5.35249 1.39497 6.76011 1.05947 8.36464 1.05947C10.0713 1.05947 11.5883 1.43143 12.9157 2.17535V4.60403C12.4635 3.80177 11.8071 3.16725 10.9465 2.70047C10.0859 2.21911 9.16691 1.97843 8.1896 1.97843C6.94973 1.97843 5.87032 2.27017 4.95136 2.85363C4.04699 3.4371 3.35412 4.23937 2.87276 5.26043C2.3914 6.26691 2.15072 7.39738 2.15072 8.65183C2.15072 10.0667 2.42057 11.2993 2.96028 12.3496C3.51457 13.3998 4.25849 14.2094 5.19204 14.7782C6.12559 15.3325 7.16853 15.6097 8.32088 15.6097C10.1734 15.6097 11.705 15.07 12.9157 13.9906V15.0408ZM16.1561 2.91927C16.1561 2.30663 16.054 1.89091 15.8498 1.67211C15.6602 1.43873 15.4414 1.32203 15.1934 1.32203H15.0621L17.5565 0.184273V14.1875C17.5565 14.8293 17.6221 15.3106 17.7534 15.6316C17.8847 15.9525 18.0305 16.1713 18.191 16.288C18.3514 16.3901 18.4317 16.4192 18.4317 16.3755H15.2809C15.2809 16.4192 15.3612 16.3901 15.5216 16.288C15.6821 16.1713 15.8279 15.9525 15.9592 15.6316C16.0905 15.2961 16.1561 14.8147 16.1561 14.1875V2.91927ZM20.174 12.634C20.174 11.8755 20.3564 11.1607 20.721 10.4898C21.1003 9.80418 21.6181 9.25718 22.2745 8.84875C22.9309 8.44033 23.6602 8.23611 24.4625 8.23611C25.2356 8.23611 25.9358 8.41845 26.563 8.78311C27.1902 9.13319 27.6789 9.61455 28.0289 10.2272C28.3936 10.8398 28.5759 11.5108 28.5759 12.2402C28.5759 12.9987 28.3863 13.7207 28.0071 14.4063C27.6424 15.0773 27.1319 15.617 26.4755 16.0254C25.8191 16.4338 25.0897 16.638 24.2875 16.638C23.5144 16.638 22.8142 16.463 22.187 16.1129C21.5598 15.7482 21.0638 15.2596 20.6991 14.647C20.3491 14.0343 20.174 13.3633 20.174 12.634ZM27.0006 12.8747C27.0006 12.262 26.8839 11.6567 26.6505 11.0586C26.4171 10.4606 26.0889 9.97193 25.6659 9.59267C25.2429 9.21342 24.7542 9.02379 24.1999 9.02379C23.4269 9.02379 22.8215 9.31553 22.3839 9.89899C21.9609 10.4825 21.7494 11.1826 21.7494 11.9995C21.7494 12.6121 21.8661 13.2175 22.0995 13.8155C22.3329 14.4136 22.6611 14.9022 23.0841 15.2815C23.5071 15.6607 23.9957 15.8504 24.55 15.8504C25.3231 15.8504 25.9212 15.5586 26.3442 14.9752C26.7818 14.3917 27.0006 13.6915 27.0006 12.8747ZM33.1897 16.638C32.7521 16.638 32.2999 16.5651 31.8332 16.4192C31.3664 16.2734 30.9798 16.0837 30.6735 15.8504V13.9249C30.9507 14.6105 31.3226 15.1064 31.7894 15.4128C32.2708 15.7045 32.7886 15.8504 33.3429 15.8504C33.7951 15.8504 34.1597 15.7264 34.4369 15.4784C34.7286 15.2304 34.8745 14.9606 34.8745 14.6688C34.8745 14.3479 34.7286 14.0781 34.4369 13.8593C34.1451 13.6405 33.7003 13.3925 33.1022 13.1154C32.3291 12.7507 31.7311 12.3933 31.308 12.0432C30.885 11.6932 30.6735 11.2191 30.6735 10.621C30.6735 9.96463 30.9215 9.40305 31.4174 8.93627C31.9134 8.4695 32.5625 8.23611 33.3648 8.23611C33.9191 8.23611 34.4004 8.30175 34.8088 8.43303C35.2173 8.56431 35.5236 8.71018 35.7278 8.87063L35.3777 10.5116C35.2027 10.0157 34.9109 9.64373 34.5025 9.39575C34.0941 9.14778 33.6638 9.02379 33.2116 9.02379C32.8178 9.02379 32.4896 9.14049 32.227 9.37387C31.979 9.60726 31.855 9.86982 31.855 10.1616C31.855 10.5554 32.0082 10.869 32.3145 11.1024C32.6354 11.3358 33.1168 11.591 33.7586 11.8682C34.5171 12.1891 35.0933 12.5173 35.4871 12.8528C35.8955 13.1737 36.0998 13.6332 36.0998 14.2312C36.0998 14.6542 35.9831 15.0481 35.7497 15.4128C35.5163 15.7774 35.1735 16.0764 34.7213 16.3098C34.2837 16.5286 33.7732 16.638 33.1897 16.638ZM41.6299 16.638C40.8423 16.638 40.164 16.4484 39.5951 16.0692C39.0262 15.6753 38.5886 15.1721 38.2823 14.5594C37.9906 13.9322 37.8447 13.2685 37.8447 12.5684C37.8447 11.664 38.0197 10.8836 38.3698 10.2272C38.7345 9.57079 39.2013 9.07485 39.7701 8.73935C40.339 8.40386 40.9298 8.23611 41.5424 8.23611C42.4176 8.23611 43.1688 8.55702 43.796 9.19883C44.4379 9.82606 44.7879 10.7013 44.8463 11.8244H39.1575C39.1575 12.5246 39.2888 13.1445 39.5513 13.6842C39.8139 14.2094 40.164 14.6178 40.6016 14.9095C41.0538 15.1867 41.5424 15.3252 42.0675 15.3252C43.4387 15.3252 44.3649 14.8876 44.8463 14.0124C44.715 14.8001 44.3576 15.4346 43.7742 15.916C43.1907 16.3974 42.476 16.638 41.6299 16.638ZM41.3893 8.95815C40.8204 8.95815 40.3317 9.16237 39.9233 9.57079C39.5149 9.96463 39.2669 10.4825 39.1794 11.1243H43.1615C43.1615 10.4533 42.9792 9.92817 42.6145 9.54891C42.2645 9.15507 41.856 8.95815 41.3893 8.95815Z" fill="#F2F2F2"/>
</svg>
