<svg width="45" height="18" viewBox="0 0 45 18" fill="none" xmlns="http://www.w3.org/2000/svg">
<path d="M12.9157 15.6653C12.3614 16.1175 11.6393 16.4968 10.7496 16.8031C9.85977 17.1094 8.96269 17.2626 8.05832 17.2626C6.70176 17.2626 5.44001 16.9489 4.27308 16.3217C3.10615 15.6945 2.16531 14.7901 1.45056 13.6086C0.7504 12.4271 0.40032 11.0413 0.40032 9.4514C0.40032 7.96356 0.721227 6.62888 1.36304 5.44736C2.01944 4.26584 2.94569 3.34688 4.1418 2.69048C5.35249 2.01949 6.76011 1.684 8.36464 1.684C10.0713 1.684 11.5883 2.05596 12.9157 2.79988V5.22856C12.4635 4.42629 11.8071 3.79177 10.9465 3.325C10.0859 2.84364 9.16691 2.60296 8.1896 2.60296C6.94973 2.60296 5.87032 2.89469 4.95136 3.47816C4.04699 4.06163 3.35412 4.86389 2.87276 5.88496C2.3914 6.89144 2.15072 8.02191 2.15072 9.27636C2.15072 10.6913 2.42057 11.9238 2.96028 12.9741C3.51457 14.0243 4.25849 14.8339 5.19204 15.4028C6.12559 15.9571 7.16853 16.2342 8.32088 16.2342C10.1734 16.2342 11.705 15.6945 12.9157 14.6151V15.6653ZM16.1561 3.5438C16.1561 2.93116 16.054 2.51544 15.8498 2.29664C15.6602 2.06325 15.4414 1.94656 15.1934 1.94656H15.0621L17.5565 0.8088V14.812C17.5565 15.4538 17.6221 15.9352 17.7534 16.2561C17.8847 16.577 18.0305 16.7958 18.191 16.9125C18.3514 17.0146 18.4317 17.0438 18.4317 17H15.2809C15.2809 17.0438 15.3612 17.0146 15.5216 16.9125C15.6821 16.7958 15.8279 16.577 15.9592 16.2561C16.0905 15.9206 16.1561 15.4392 16.1561 14.812V3.5438ZM20.174 13.2585C20.174 12.5 20.3564 11.7853 20.721 11.1143C21.1003 10.4287 21.6181 9.88171 22.2745 9.47328C22.9309 9.06485 23.6602 8.86064 24.4625 8.86064C25.2356 8.86064 25.9358 9.04297 26.563 9.40764C27.1902 9.75772 27.6789 10.2391 28.0289 10.8517C28.3936 11.4644 28.5759 12.1353 28.5759 12.8647C28.5759 13.6232 28.3863 14.3452 28.0071 15.0308C27.6424 15.7018 27.1319 16.2415 26.4755 16.6499C25.8191 17.0583 25.0897 17.2626 24.2875 17.2626C23.5144 17.2626 22.8142 17.0875 22.187 16.7374C21.5598 16.3728 21.0638 15.8841 20.6991 15.2715C20.3491 14.6588 20.174 13.9879 20.174 13.2585ZM27.0006 13.4992C27.0006 12.8866 26.8839 12.2812 26.6505 11.6832C26.4171 11.0851 26.0889 10.5965 25.6659 10.2172C25.2429 9.83795 24.7542 9.64832 24.1999 9.64832C23.4269 9.64832 22.8215 9.94005 22.3839 10.5235C21.9609 11.107 21.7494 11.8071 21.7494 12.624C21.7494 13.2366 21.8661 13.842 22.0995 14.44C22.3329 15.0381 22.6611 15.5267 23.0841 15.906C23.5071 16.2853 23.9957 16.4749 24.55 16.4749C25.3231 16.4749 25.9212 16.1831 26.3442 15.5997C26.7818 15.0162 27.0006 14.3161 27.0006 13.4992ZM33.1897 17.2626C32.7521 17.2626 32.2999 17.1896 31.8332 17.0438C31.3664 16.8979 30.9798 16.7083 30.6735 16.4749V14.5494C30.9507 15.235 31.3226 15.731 31.7894 16.0373C32.2708 16.329 32.7886 16.4749 33.3429 16.4749C33.7951 16.4749 34.1597 16.3509 34.4369 16.1029C34.7286 15.8549 34.8745 15.5851 34.8745 15.2934C34.8745 14.9725 34.7286 14.7026 34.4369 14.4838C34.1451 14.265 33.7003 14.017 33.1022 13.7399C32.3291 13.3752 31.7311 13.0178 31.308 12.6678C30.885 12.3177 30.6735 11.8436 30.6735 11.2456C30.6735 10.5892 30.9215 10.0276 31.4174 9.5608C31.9134 9.09403 32.5625 8.86064 33.3648 8.86064C33.9191 8.86064 34.4004 8.92628 34.8088 9.05756C35.2173 9.18884 35.5236 9.33471 35.7278 9.49516L35.3777 11.1362C35.2027 10.6402 34.9109 10.2683 34.5025 10.0203C34.0941 9.77231 33.6638 9.64832 33.2116 9.64832C32.8178 9.64832 32.4896 9.76501 32.227 9.9984C31.979 10.2318 31.855 10.4943 31.855 10.7861C31.855 11.1799 32.0082 11.4935 32.3145 11.7269C32.6354 11.9603 33.1168 12.2156 33.7586 12.4927C34.5171 12.8136 35.0933 13.1418 35.4871 13.4773C35.8955 13.7982 36.0998 14.2577 36.0998 14.8558C36.0998 15.2788 35.9831 15.6726 35.7497 16.0373C35.5163 16.4019 35.1735 16.701 34.7213 16.9344C34.2837 17.1532 33.7732 17.2626 33.1897 17.2626ZM41.6299 17.2626C40.8423 17.2626 40.164 17.0729 39.5951 16.6937C39.0262 16.2998 38.5886 15.7966 38.2823 15.184C37.9906 14.5567 37.8447 13.893 37.8447 13.1929C37.8447 12.2885 38.0197 11.5081 38.3698 10.8517C38.7345 10.1953 39.2013 9.69937 39.7701 9.36388C40.339 9.02839 40.9298 8.86064 41.5424 8.86064C42.4176 8.86064 43.1688 9.18155 43.796 9.82336C44.4379 10.4506 44.7879 11.3258 44.8463 12.449H39.1575C39.1575 13.1491 39.2888 13.7691 39.5513 14.3088C39.8139 14.8339 40.164 15.2423 40.6016 15.534C41.0538 15.8112 41.5424 15.9498 42.0675 15.9498C43.4387 15.9498 44.3649 15.5122 44.8463 14.637C44.715 15.4246 44.3576 16.0592 43.7742 16.5405C43.1907 17.0219 42.476 17.2626 41.6299 17.2626ZM41.3893 9.58268C40.8204 9.58268 40.3317 9.78689 39.9233 10.1953C39.5149 10.5892 39.2669 11.107 39.1794 11.7488H43.1615C43.1615 11.0778 42.9792 10.5527 42.6145 10.1734C42.2645 9.7796 41.856 9.58268 41.3893 9.58268Z" fill="#F2F2F2"/>
</svg>
