<svg width="21" height="26" viewBox="0 0 21 26" fill="none" xmlns="http://www.w3.org/2000/svg">
    <path d="M6.18186 19.638C5.42336 19.638 4.69402 19.5359 3.99386 19.3317C3.2937 19.1129 2.66648 18.8139 2.11218 18.4346V15.7872C2.49144 16.7645 3.06761 17.5084 3.8407 18.0189C4.62838 18.5149 5.44524 18.7628 6.29126 18.7628C7.13729 18.7628 7.84474 18.4857 8.41362 17.9314C8.9825 17.3625 9.26694 16.6624 9.26694 15.8309C9.26694 15.2766 9.15025 14.8026 8.91686 14.4087C8.69806 14.0149 8.34069 13.6502 7.84474 13.3147C7.3488 12.9646 6.64864 12.5781 5.74426 12.1551C4.47522 11.5716 3.54897 10.9663 2.9655 10.339C2.39662 9.69722 2.11218 8.92413 2.11218 8.01975C2.11218 7.24666 2.29452 6.56109 2.65918 5.96303C3.03844 5.35039 3.54168 4.88362 4.1689 4.56271C4.81072 4.22722 5.51088 4.05947 6.26938 4.05947C6.92578 4.05947 7.5676 4.15429 8.19482 4.34391C8.82205 4.51895 9.40552 4.77422 9.94522 5.10971V7.47275C9.59514 6.67049 9.06273 6.05055 8.34798 5.61295C7.64782 5.16077 6.93308 4.93467 6.20374 4.93467C5.3723 4.93467 4.70132 5.20453 4.19078 5.74423C3.68025 6.28394 3.42498 6.92575 3.42498 7.66967C3.42498 8.20938 3.57814 8.67615 3.88446 9.06999C4.19078 9.44925 4.56274 9.77015 5.00034 10.0327C5.45253 10.2953 6.07976 10.6162 6.88202 10.9954C7.69888 11.3893 8.36986 11.7539 8.89498 12.0894C9.4201 12.4249 9.8577 12.8625 10.2078 13.4022C10.5579 13.9419 10.7329 14.5983 10.7329 15.3714C10.7329 16.2466 10.5214 17.0051 10.0984 17.647C9.68996 18.2888 9.13566 18.7847 8.4355 19.1348C7.74993 19.4703 6.99872 19.638 6.18186 19.638ZM15.838 18.7191L13.278 12.9209C13.03 12.3666 12.7893 11.9873 12.556 11.7831C12.3372 11.5643 12.1621 11.4403 12.0308 11.4112H15.2253C15.094 11.4403 14.9628 11.506 14.8315 11.6081C14.7002 11.7102 14.6346 11.8925 14.6346 12.1551C14.6346 12.403 14.7075 12.6802 14.8534 12.9865L16.6256 17.0781L18.201 13.2053C18.3031 12.9428 18.3542 12.6729 18.3542 12.3958C18.3542 12.1332 18.2958 11.9144 18.1791 11.7394C18.077 11.5643 17.902 11.4549 17.654 11.4112H20.5859C20.4255 11.4403 20.214 11.5643 19.9514 11.7831C19.7034 12.0019 19.4554 12.4103 19.2075 13.0084L16.2318 19.9225C15.838 20.8414 15.5462 21.5635 15.3566 22.0886C15.167 22.6283 14.9846 23.1826 14.8096 23.7515C14.7367 24.0286 14.6637 24.262 14.5908 24.4516H12.359C12.7529 24.262 13.2342 23.7296 13.8031 22.8544C14.3866 21.9792 14.9846 20.7977 15.5973 19.3098L15.838 18.7191Z" fill="#F2F2F2"/>
</svg>
