<svg width="47" height="16" viewBox="0 0 47 16" fill="none" xmlns="http://www.w3.org/2000/svg">
    <path d="M13.5283 15.3755C13.7034 15.3463 13.893 15.1931 14.0972 14.916C14.3014 14.6243 14.4035 14.0918 14.4035 13.3188V2.37875L8.67096 15.6162L2.85088 2.40063V13.2094C2.85088 13.997 2.97487 14.5513 3.22284 14.8722C3.4854 15.1786 3.71879 15.3463 3.923 15.3755H0.68476C0.90356 15.3463 1.14424 15.1858 1.4068 14.8941C1.66936 14.5878 1.80064 14.0262 1.80064 13.2094V2.24747C1.80064 1.54731 1.67665 1.06595 1.42868 0.803393C1.18071 0.540833 0.932733 0.38038 0.68476 0.322033H3.63856L8.99916 12.553L14.2722 0.322033H16.9197C16.7301 0.351206 16.5259 0.504366 16.3071 0.781512C16.0883 1.05866 15.9789 1.56919 15.9789 2.31311V13.4063C15.9789 14.1356 16.0883 14.6388 16.3071 14.916C16.5259 15.1931 16.7301 15.3463 16.9197 15.3755H13.5283ZM23.0832 15.638C22.2955 15.638 21.6173 15.4484 21.0484 15.0692C20.4795 14.6753 20.0419 14.1721 19.7356 13.5594C19.4438 12.9322 19.298 12.2685 19.298 11.5684C19.298 10.664 19.473 9.88359 19.8231 9.22719C20.1878 8.57079 20.6545 8.07485 21.2234 7.73935C21.7923 7.40386 22.3831 7.23611 22.9957 7.23611C23.8709 7.23611 24.6221 7.55702 25.2493 8.19883C25.8911 8.82606 26.2412 9.70126 26.2996 10.8244H20.6108C20.6108 11.5246 20.7421 12.1445 21.0046 12.6842C21.2672 13.2094 21.6173 13.6178 22.0549 13.9095C22.507 14.1867 22.9957 14.3252 23.5208 14.3252C24.892 14.3252 25.8182 13.8876 26.2996 13.0124C26.1683 13.8001 25.8109 14.4346 25.2275 14.916C24.644 15.3974 23.9292 15.638 23.0832 15.638ZM22.8425 7.95815C22.2737 7.95815 21.785 8.16237 21.3766 8.57079C20.9681 8.96463 20.7202 9.48246 20.6327 10.1243H24.6148C24.6148 9.45329 24.4325 8.92817 24.0678 8.54891C23.7177 8.15507 23.3093 7.95815 22.8425 7.95815ZM30.334 8.72395C30.6695 8.27177 31.0634 7.91439 31.5156 7.65183C31.9823 7.37469 32.471 7.23611 32.9815 7.23611C33.7692 7.23611 34.3964 7.49138 34.8632 8.00191C35.3446 8.49786 35.5852 9.2199 35.5852 10.168V13.2094C35.5852 13.822 35.6509 14.2888 35.7822 14.6097C35.9134 14.9306 36.0593 15.1494 36.2198 15.2661C36.3802 15.3828 36.4604 15.4192 36.4604 15.3755H33.3097C33.3097 15.4192 33.3899 15.3901 33.5504 15.288C33.7109 15.1713 33.8567 14.9525 33.988 14.6316C34.1193 14.3106 34.1849 13.8293 34.1849 13.1875V10.6932C34.1849 10.1972 34.1193 9.80337 33.988 9.51163C33.8567 9.2199 33.6817 8.97922 33.4629 8.78959C33.1274 8.51245 32.7263 8.37387 32.2595 8.37387C31.7344 8.37387 31.2822 8.54891 30.9029 8.89899C30.5237 9.23449 30.334 9.70855 30.334 10.3212V13.1875C30.334 13.8147 30.3997 14.2888 30.531 14.6097C30.6622 14.9306 30.8081 15.1494 30.9686 15.2661C31.1436 15.3828 31.2311 15.4192 31.2311 15.3755H28.0804C28.0804 15.4192 28.1606 15.3901 28.3211 15.288C28.4815 15.1713 28.6201 14.9525 28.7368 14.6316C28.8681 14.2961 28.9337 13.8147 28.9337 13.1875V9.88359C28.9337 9.27095 28.8316 8.85523 28.6274 8.63643C28.4378 8.40305 28.219 8.28635 27.971 8.28635L30.334 7.23611V8.72395ZM44.3343 14.1064C43.605 15.1275 42.7079 15.638 41.6431 15.638C40.8992 15.638 40.2865 15.3974 39.8052 14.916C39.3238 14.42 39.0831 13.6688 39.0831 12.6624V9.55539C39.0831 8.95734 38.9883 8.49786 38.7987 8.17695C38.6237 7.85605 38.4194 7.63725 38.1861 7.52055C37.9527 7.40386 37.836 7.36739 37.836 7.41115H40.4835V12.3342C40.4835 13.0197 40.6658 13.5448 41.0305 13.9095C41.4097 14.2742 41.8546 14.4565 42.3651 14.4565C42.8757 14.4565 43.3279 14.2888 43.7217 13.9533C44.1301 13.6032 44.3343 13.151 44.3343 12.5967V9.40223C44.3343 8.83335 44.2614 8.40305 44.1155 8.11131C43.9697 7.81958 43.8019 7.62266 43.6123 7.52055C43.4227 7.41845 43.3279 7.38198 43.3279 7.41115H45.7347V12.903C45.7347 13.5157 45.8295 13.9387 46.0191 14.1721C46.2233 14.3909 46.4494 14.5003 46.6974 14.5003H46.8287L44.3343 15.638V14.1064Z" fill="#F2F2F2"/>
</svg>
