<svg width="48" height="17" viewBox="0 0 48 17" fill="none" xmlns="http://www.w3.org/2000/svg">
<path d="M13.7872 16C13.9623 15.9708 14.1519 15.8177 14.3561 15.5405C14.5603 15.2488 14.6624 14.7164 14.6624 13.9433V3.00328L8.92989 16.2407L3.10981 3.02516V13.8339C3.10981 14.6216 3.23379 15.1759 3.48177 15.4968C3.74433 15.8031 3.97771 15.9708 4.18193 16H0.943686C1.16249 15.9708 1.40317 15.8104 1.66573 15.5186C1.92829 15.2123 2.05957 14.6507 2.05957 13.8339V2.872C2.05957 2.17184 1.93558 1.69048 1.68761 1.42792C1.43963 1.16536 1.19166 1.00491 0.943686 0.94656H3.89749L9.25809 13.1775L14.5312 0.94656H17.1786C16.989 0.975733 16.7848 1.12889 16.566 1.40604C16.3472 1.68319 16.2378 2.19372 16.2378 2.93764V14.0308C16.2378 14.7601 16.3472 15.2634 16.566 15.5405C16.7848 15.8177 16.989 15.9708 17.1786 16H13.7872ZM23.3421 16.2626C22.5545 16.2626 21.8762 16.0729 21.3073 15.6937C20.7384 15.2998 20.3008 14.7966 19.9945 14.184C19.7028 13.5567 19.5569 12.893 19.5569 12.1929C19.5569 11.2885 19.7319 10.5081 20.082 9.85172C20.4467 9.19532 20.9135 8.69937 21.4823 8.36388C22.0512 8.02839 22.642 7.86064 23.2546 7.86064C24.1298 7.86064 24.881 8.18155 25.5083 8.82336C26.1501 9.45059 26.5002 10.3258 26.5585 11.449H20.8697C20.8697 12.1491 21.001 12.7691 21.2635 13.3088C21.5261 13.8339 21.8762 14.2423 22.3138 14.534C22.766 14.8112 23.2546 14.9498 23.7797 14.9498C25.1509 14.9498 26.0771 14.5122 26.5585 13.637C26.4272 14.4246 26.0698 15.0592 25.4864 15.5405C24.9029 16.0219 24.1882 16.2626 23.3421 16.2626ZM23.1015 8.58268C22.5326 8.58268 22.0439 8.78689 21.6355 9.19532C21.2271 9.58916 20.9791 10.107 20.8916 10.7488H24.8737C24.8737 10.0778 24.6914 9.55269 24.3267 9.17344C23.9767 8.7796 23.5682 8.58268 23.1015 8.58268ZM30.593 9.34848C30.9285 8.89629 31.3223 8.53892 31.7745 8.27636C32.2413 7.99921 32.7299 7.86064 33.2404 7.86064C34.0281 7.86064 34.6554 8.11591 35.1221 8.62644C35.6035 9.12239 35.8442 9.84443 35.8442 10.7926V13.8339C35.8442 14.4465 35.9098 14.9133 36.0411 15.2342C36.1724 15.5551 36.3182 15.7739 36.4787 15.8906C36.6391 16.0073 36.7194 16.0438 36.7194 16H33.5686C33.5686 16.0438 33.6489 16.0146 33.8093 15.9125C33.9698 15.7958 34.1156 15.577 34.2469 15.2561C34.3782 14.9352 34.4438 14.4538 34.4438 13.812V11.3177C34.4438 10.8217 34.3782 10.4279 34.2469 10.1362C34.1156 9.84443 33.9406 9.60375 33.7218 9.41412C33.3863 9.13697 32.9852 8.9984 32.5184 8.9984C31.9933 8.9984 31.5411 9.17344 31.1618 9.52352C30.7826 9.85901 30.593 10.3331 30.593 10.9457V13.812C30.593 14.4392 30.6586 14.9133 30.7899 15.2342C30.9212 15.5551 31.067 15.7739 31.2275 15.8906C31.4025 16.0073 31.49 16.0438 31.49 16H28.3393C28.3393 16.0438 28.4196 16.0146 28.58 15.9125C28.7405 15.7958 28.879 15.577 28.9957 15.2561C29.127 14.9206 29.1926 14.4392 29.1926 13.812V10.5081C29.1926 9.89548 29.0905 9.47976 28.8863 9.26096C28.6967 9.02757 28.4779 8.91088 28.2299 8.91088L30.593 7.86064V9.34848ZM44.5933 14.731C43.8639 15.752 42.9668 16.2626 41.902 16.2626C41.1581 16.2626 40.5455 16.0219 40.0641 15.5405C39.5827 15.0446 39.3421 14.2934 39.3421 13.2869V10.1799C39.3421 9.58187 39.2472 9.12239 39.0576 8.80148C38.8826 8.48057 38.6784 8.26177 38.445 8.14508C38.2116 8.02839 38.0949 7.99192 38.0949 8.03568H40.7424V12.9587C40.7424 13.6443 40.9247 14.1694 41.2894 14.534C41.6686 14.8987 42.1135 15.081 42.6241 15.081C43.1346 15.081 43.5868 14.9133 43.9806 14.5778C44.389 14.2277 44.5933 13.7755 44.5933 13.2212V10.0268C44.5933 9.45788 44.5203 9.02757 44.3745 8.73584C44.2286 8.44411 44.0608 8.24719 43.8712 8.14508C43.6816 8.04297 43.5868 8.00651 43.5868 8.03568H45.9936V13.5276C45.9936 14.1402 46.0884 14.5632 46.278 14.7966C46.4822 15.0154 46.7083 15.1248 46.9563 15.1248H47.0876L44.5933 16.2626V14.731Z" fill="#F2F2F2"/>
</svg>
