<svg width="47" height="17" viewBox="0 0 47 17" fill="none" xmlns="http://www.w3.org/2000/svg">
<path d="M13.5283 16C13.7034 15.9708 13.893 15.8177 14.0972 15.5405C14.3014 15.2488 14.4035 14.7164 14.4035 13.9433V3.00328L8.67096 16.2407L2.85088 3.02516V13.8339C2.85088 14.6216 2.97487 15.1759 3.22284 15.4968C3.4854 15.8031 3.71879 15.9708 3.923 16H0.68476C0.90356 15.9708 1.14424 15.8104 1.4068 15.5186C1.66936 15.2123 1.80064 14.6507 1.80064 13.8339V2.872C1.80064 2.17184 1.67665 1.69048 1.42868 1.42792C1.18071 1.16536 0.932733 1.00491 0.68476 0.94656H3.63856L8.99916 13.1775L14.2722 0.94656H16.9197C16.7301 0.975733 16.5259 1.12889 16.3071 1.40604C16.0883 1.68319 15.9789 2.19372 15.9789 2.93764V14.0308C15.9789 14.7601 16.0883 15.2634 16.3071 15.5405C16.5259 15.8177 16.7301 15.9708 16.9197 16H13.5283ZM23.0832 16.2626C22.2955 16.2626 21.6173 16.0729 21.0484 15.6937C20.4795 15.2998 20.0419 14.7966 19.7356 14.184C19.4438 13.5567 19.298 12.893 19.298 12.1929C19.298 11.2885 19.473 10.5081 19.8231 9.85172C20.1878 9.19532 20.6545 8.69937 21.2234 8.36388C21.7923 8.02839 22.3831 7.86064 22.9957 7.86064C23.8709 7.86064 24.6221 8.18155 25.2493 8.82336C25.8911 9.45059 26.2412 10.3258 26.2996 11.449H20.6108C20.6108 12.1491 20.7421 12.7691 21.0046 13.3088C21.2672 13.8339 21.6173 14.2423 22.0549 14.534C22.507 14.8112 22.9957 14.9498 23.5208 14.9498C24.892 14.9498 25.8182 14.5122 26.2996 13.637C26.1683 14.4246 25.8109 15.0592 25.2275 15.5405C24.644 16.0219 23.9292 16.2626 23.0832 16.2626ZM22.8425 8.58268C22.2737 8.58268 21.785 8.78689 21.3766 9.19532C20.9681 9.58916 20.7202 10.107 20.6327 10.7488H24.6148C24.6148 10.0778 24.4325 9.55269 24.0678 9.17344C23.7177 8.7796 23.3093 8.58268 22.8425 8.58268ZM30.334 9.34848C30.6695 8.89629 31.0634 8.53892 31.5156 8.27636C31.9823 7.99921 32.471 7.86064 32.9815 7.86064C33.7692 7.86064 34.3964 8.11591 34.8632 8.62644C35.3446 9.12239 35.5852 9.84443 35.5852 10.7926V13.8339C35.5852 14.4465 35.6509 14.9133 35.7822 15.2342C35.9134 15.5551 36.0593 15.7739 36.2198 15.8906C36.3802 16.0073 36.4604 16.0438 36.4604 16H33.3097C33.3097 16.0438 33.3899 16.0146 33.5504 15.9125C33.7109 15.7958 33.8567 15.577 33.988 15.2561C34.1193 14.9352 34.1849 14.4538 34.1849 13.812V11.3177C34.1849 10.8217 34.1193 10.4279 33.988 10.1362C33.8567 9.84443 33.6817 9.60375 33.4629 9.41412C33.1274 9.13697 32.7263 8.9984 32.2595 8.9984C31.7344 8.9984 31.2822 9.17344 30.9029 9.52352C30.5237 9.85901 30.334 10.3331 30.334 10.9457V13.812C30.334 14.4392 30.3997 14.9133 30.531 15.2342C30.6622 15.5551 30.8081 15.7739 30.9686 15.8906C31.1436 16.0073 31.2311 16.0438 31.2311 16H28.0804C28.0804 16.0438 28.1606 16.0146 28.3211 15.9125C28.4815 15.7958 28.6201 15.577 28.7368 15.2561C28.8681 14.9206 28.9337 14.4392 28.9337 13.812V10.5081C28.9337 9.89548 28.8316 9.47976 28.6274 9.26096C28.4378 9.02757 28.219 8.91088 27.971 8.91088L30.334 7.86064V9.34848ZM44.3343 14.731C43.605 15.752 42.7079 16.2626 41.6431 16.2626C40.8992 16.2626 40.2865 16.0219 39.8052 15.5405C39.3238 15.0446 39.0831 14.2934 39.0831 13.2869V10.1799C39.0831 9.58187 38.9883 9.12239 38.7987 8.80148C38.6237 8.48057 38.4194 8.26177 38.1861 8.14508C37.9527 8.02839 37.836 7.99192 37.836 8.03568H40.4835V12.9587C40.4835 13.6443 40.6658 14.1694 41.0305 14.534C41.4097 14.8987 41.8546 15.081 42.3651 15.081C42.8757 15.081 43.3279 14.9133 43.7217 14.5778C44.1301 14.2277 44.3343 13.7755 44.3343 13.2212V10.0268C44.3343 9.45788 44.2614 9.02757 44.1155 8.73584C43.9697 8.44411 43.8019 8.24719 43.6123 8.14508C43.4227 8.04297 43.3279 8.00651 43.3279 8.03568H45.7347V13.5276C45.7347 14.1402 45.8295 14.5632 46.0191 14.7966C46.2233 15.0154 46.4494 15.1248 46.6974 15.1248H46.8287L44.3343 16.2626V14.731Z" fill="#F2F2F2"/>
</svg>
